#!OML:ASF E:\Mandelcareful walks\Project 1\Capture day 1\Session 1\Subject1.ASF
:FULLY-SPECIFIED
:DEGREES
592
root -2.10934 16.0839 -2.83888 653.653 91.6967 650.237
lowerback 21.8899 -0.0883675 -6.86317
upperback 6.18204 -1.18712 -0.626074
thorax -5.28939 -0.365887 3.52426
lowerneck -30.0012 1.9154 -2.18147
upperneck 25.3335 4.85281 -3.02106
head 13.6014 1.45575 0.12945
rclavicle 1.59028e-014 4.49253e-014
rhumerus -31.5142 0.847542 -86.0968
rradius 48.4949
rwrist -20.9247
rhand -12.8972 -29.2118
rfingers 7.12502
rthumb 13.1923 -58.7744
lclavicle 1.59028e-014 4.49253e-014
lhumerus -21.1485 -15.8812 85.529
lradius 63.1658
lwrist 26.1038
lhand -28.1746 -11.9289
lfingers 7.12502
lthumb -1.55455 18.0452
rfemur -35.5593 -7.60924 8.74909
rtibia 29.5324
rfoot 5.29016 -7.62634
rtoes 5.26701
lfemur -12.5385 8.43085 -22.56
ltibia 43.4928
lfoot -31.6903 6.92842
ltoes 11.6113
593
root -2.02281 16.0582 -2.78324 653.468 91.9415 649.928
lowerback 22.3865 -0.223244 -6.69504
upperback 5.8185 -1.40002 -0.598955
thorax -5.92611 -0.446768 3.52717
lowerneck -29.3455 2.09127 -1.90779
upperneck 25.2036 5.10935 -3.49308
head 13.4493 1.54179 -0.0564999
rclavicle 4.96962e-015 3.18055e-015
rhumerus -32.1277 1.3634 -86.2154
rradius 49.3985
rwrist -21.3218
rhand -13.378 -28.7365
rfingers 7.12502
rthumb 12.7288 -58.3286
lclavicle 4.96962e-015 3.18055e-015
lhumerus -22.4254 -16.3464 86.0085
lradius 63.9658
lwrist 27.1844
lhand -29.9106 -11.7637
lfingers 7.12502
lthumb -3.23111 18.1916
rfemur -36.1294 -7.96945 8.83191
rtibia 30.8967
rfoot 4.24888 -6.82929
rtoes 6.44552
lfemur -12.3513 8.35422 -22.5808
ltibia 43.6178
lfoot -31.9901 7.00047
ltoes 11.2487
594
root -1.9357 16.03 -2.71891 658.321 92.2152 654.668
lowerback 22.9273 -0.423824 -6.29852
upperback 5.79787 -1.60435 -0.601768
thorax -6.22027 -0.534266 3.36458
lowerneck -29.9404 2.22688 -1.71272
upperneck 25.2737 5.35909 -3.86608
head 13.6183 1.60014 -0.181555
rclavicle -2.52457e-014 -9.54166e-015
rhumerus -31.9451 1.59908 -86.3058
rradius 50.2092
rwrist -21.7026
rhand -13.5011 -28.4276
rfingers 7.12502
rthumb 12.6101 -58.027
lclavicle -2.52457e-014 -9.54166e-015
lhumerus -22.8638 -16.6343 86.0581
lradius 64.5896
lwrist 26.4814
lhand -31.3397 -11.3732
lfingers 7.12502
lthumb -4.61117 18.5566
rfemur -36.6917 -8.55192 9.01697
rtibia 32.3132
rfoot 3.32748 -6.34671
rtoes 5.57113
lfemur -12.1654 8.20639 -22.4519
ltibia 43.8284
lfoot -32.2462 6.68295
ltoes 11.3171
595
root -1.8427 16.0015 -2.65061 659.313 92.4424 655.535
lowerback 23.3681 -0.503933 -6.11066
upperback 5.50821 -1.72007 -0.549205
thorax -6.76048 -0.572984 3.36182
lowerneck -29.1896 2.38503 -1.36625
upperneck 25.0265 5.52582 -4.28178
head 13.4006 1.66938 -0.374988
rclavicle -1.41137e-014 1.98785e-015
rhumerus -32.6841 1.93903 -86.344
rradius 51.3785
rwrist -22.1086
rhand -13.5418 -28.0729
rfingers 7.12502
rthumb 12.5708 -57.6747
lclavicle -1.41137e-014 1.98785e-015
lhumerus -24.2033 -17.2672 86.4945
lradius 65.424
lwrist 26.3872
lhand -31.022 -10.5971
lfingers 7.12502
lthumb -4.30441 19.3391
rfemur -37.3183 -9.21244 9.28413
rtibia 33.7682
rfoot 2.46189 -5.74876
rtoes 5.05644
lfemur -12.0209 8.25691 -22.2936
ltibia 44.0883
lfoot -32.4872 6.3141
ltoes 10.6037
596
root -1.75208 15.9729 -2.58283 655.578 92.6558 651.585
lowerback 23.7245 -0.533016 -5.87113
upperback 5.6635 -1.70083 -0.549451
thorax -6.78263 -0.561473 3.22532
lowerneck -30.4349 2.3812 -1.45836
upperneck 25.2648 5.64732 -4.38371
head 13.7462 1.66304 -0.367199
rclavicle -1.25234e-014 1.27222e-014
rhumerus -32.4355 2.40512 -86.3441
rradius 52.6204
rwrist -22.488
rhand -13.8576 -28.1732
rfingers 7.12502
rthumb 12.2664 -57.7935
lclavicle -1.25234e-014 1.27222e-014
lhumerus -24.4306 -18.1558 86.7048
lradius 66.1496
lwrist 26.7163
lhand -27.6125 -11.5661
lfingers 7.12502
lthumb -1.01166 18.4112
rfemur -38.1416 -9.80062 9.53121
rtibia 35.2604
rfoot 1.60933 -4.95776
rtoes 4.83336
lfemur -12.002 8.54269 -22.2561
ltibia 44.3363
lfoot -32.7136 6.09456
ltoes 9.52406
597
root -1.66254 15.9437 -2.51447 650.008 92.9275 645.715
lowerback 23.9944 -0.527546 -5.92407
upperback 5.53098 -1.73218 -0.494491
thorax -7.06063 -0.565933 3.33353
lowerneck -30.2783 2.472 -1.4126
upperneck 25.1046 5.82647 -4.64509
head 13.6664 1.71475 -0.443218
rclavicle 8.84592e-015 3.97569e-015
rhumerus -32.7003 3.34548 -86.3708
rradius 53.8717
rwrist -22.866
rhand -14.1701 -28.4752
rfingers 7.12502
rthumb 11.9651 -58.1132
lclavicle 8.84592e-015 3.97569e-015
lhumerus -25.3419 -18.9031 87.1497
lradius 66.8481
lwrist 26.9259
lhand -28.5838 -11.1144
lfingers 7.12502
lthumb -1.94978 18.8565
rfemur -39.0891 -10.242 9.66198
rtibia 36.7452
rfoot 0.707335 -4.16682
rtoes 3.94555
lfemur -12.0628 8.88566 -22.3246
ltibia 44.5825
lfoot -32.9711 5.98136
ltoes 8.97202
598
root -1.56639 15.9193 -2.4402 653.673 93.3799 649.176
lowerback 24.2533 -0.71513 -5.82721
upperback 5.52355 -1.96193 -0.483821
thorax -7.18249 -0.67031 3.36296
lowerneck -30.1819 2.54886 -1.31804
upperneck 24.9289 5.91761 -4.78241
head 13.5854 1.75026 -0.495274
rclavicle 3.39922e-014 1.43125e-014
rhumerus -32.7799 4.14362 -86.4889
rradius 55.1266
rwrist -23.289
rhand -14.2655 -29.0585
rfingers 7.12502
rthumb 11.8731 -58.7019
lclavicle 3.39922e-014 1.43125e-014
lhumerus -26.1009 -19.8306 87.472
lradius 67.3753
lwrist 26.9188
lhand -28.9131 -11.1912
lfingers 7.12502
lthumb -2.26781 18.7765
rfemur -39.67 -10.9076 9.65968
rtibia 38.1687
rfoot -0.430918 -3.67741
rtoes 3.72085
lfemur -11.9958 8.79059 -22.328
ltibia 44.7455
lfoot -33.1186 5.84048
ltoes 8.3531
599
root -1.48177 15.8979 -2.35952 657.705 93.8474 652.906
lowerback 24.5629 -0.941198 -5.643
upperback 5.55554 -2.21411 -0.448944
thorax -7.28756 -0.786136 3.3778
lowerneck -30.4908 2.57581 -1.39174
upperneck 24.8447 6.02498 -4.88639
head 13.6153 1.76913 -0.500549
rclavicle 3.27995e-015 -1.2921e-014
rhumerus -32.6622 4.98675 -86.5527
rradius 56.5071
rwrist -23.7518
rhand -14.4966 -29.9091
rfingers 7.12502
rthumb 11.6503 -59.5652
lclavicle 3.27995e-015 -1.2921e-014
lhumerus -26.6622 -20.7764 87.7635
lradius 67.8157
lwrist 26.6637
lhand -28.4414 -11.1514
lfingers 7.12502
lthumb -1.81221 18.8207
rfemur -40.361 -11.6357 9.76091
rtibia 39.5404
rfoot -1.51505 -3.33436
rtoes 4.61895
lfemur -12.1295 8.73061 -22.3173
ltibia 44.8773
lfoot -33.0355 5.90711
ltoes 6.31123
600
root -1.37095 15.8813 -2.28802 655.165 94.1101 650.219
lowerback 24.6418 -0.981875 -5.45379
upperback 5.66353 -2.21091 -0.460701
thorax -7.21742 -0.787653 3.25583
lowerneck -30.4998 2.62834 -1.24897
upperneck 24.65 6.12827 -5.22433
head 13.5598 1.78402 -0.636371
rclavicle 1.74434e-014 -2.01766e-014
rhumerus -32.6861 5.66135 -86.5206
rradius 57.7851
rwrist -24.0142
rhand -14.6857 -29.6097
rfingers 7.12502
rthumb 11.4679 -59.276
lclavicle 1.74434e-014 -2.01766e-014
lhumerus -27.273 -21.8678 88.1627
lradius 68.2008
lwrist 26.2917
lhand -28.2579 -10.9262
lfingers 7.12502
lthumb -1.63497 19.0473
rfemur -40.9144 -12.0642 9.90613
rtibia 40.8343
rfoot -2.43478 -2.84864
rtoes 5.62152
lfemur -11.8932 9.07532 -22.313
ltibia 44.9178
lfoot -33.0075 6.16626
ltoes 3.28986
601
root -1.27963 15.8618 -2.20403 657.635 94.6115 652.427
lowerback 24.7561 -1.13159 -5.368
upperback 5.76095 -2.37 -0.424474
thorax -7.15494 -0.863503 3.29451
lowerneck -30.6081 2.67309 -1.10064
upperneck 24.4816 6.23608 -5.60193
head 13.5376 1.79267 -0.786962
rclavicle 1.1281e-014 1.68967e-014
rhumerus -32.5268 6.23115 -86.4087
rradius 58.8411
rwrist -24.0878
rhand -14.7921 -28.3275
rfingers 7.12502
rthumb 11.3653 -57.9996
lclavicle 1.1281e-014 1.68967e-014
lhumerus -27.6437 -22.922 88.5996
lradius 68.3632
lwrist 25.58
lhand -28.4523 -11.164
lfingers 7.12502
lthumb -1.82273 18.808
rfemur -41.5323 -12.5304 9.88172
rtibia 42.0835
rfoot -3.23018 -2.82088
rtoes 6.09083
lfemur -11.9037 9.0973 -22.3173
ltibia 45.0011
lfoot -32.7915 6.1872
ltoes 1.11911
602
root -1.18559 15.8451 -2.12133 657.403 94.8423 651.887
lowerback 24.8278 -1.18526 -5.21105
upperback 5.7973 -2.39031 -0.331271
thorax -7.15242 -0.874171 3.3148
lowerneck -30.6186 2.68899 -1.11569
upperneck 24.3808 6.34404 -5.85647
head 13.5146 1.80453 -0.862627
rclavicle 4.88265e-015 8.33653e-015
rhumerus -32.4226 6.88348 -86.2968
rradius 60.0635
rwrist -24.24
rhand -15.0083 -27.5486
rfingers 7.12502
rthumb 11.1567 -57.232
lclavicle 4.88265e-015 8.33653e-015
lhumerus -28.175 -23.9083 89.1633
lradius 68.4673
lwrist 24.6089
lhand -28.3601 -11.717
lfingers 7.12502
lthumb -1.73368 18.2557
rfemur -42.2171 -12.6062 10.0021
rtibia 43.2841
rfoot -3.99242 -2.85446
rtoes 6.42166
lfemur -11.8923 9.28005 -22.1538
ltibia 45.0619
lfoot -32.6522 6.1153
ltoes -0.111033
